<svg xmlns="http://www.w3.org/2000/svg" xmlns:xlink="http://www.w3.org/1999/xlink" width="500" zoomAndPan="magnify" viewBox="0 0 375 374.999991" height="500" preserveAspectRatio="xMidYMid meet" version="1.0"><defs><g/><clipPath id="756187bafc"><path d="M 195 139 L 242.101562 139 L 242.101562 180 L 195 180 Z M 195 139 " clip-rule="nonzero"/></clipPath><clipPath id="14dfceb0e6"><path d="M 211 166 L 234 166 L 234 188.359375 L 211 188.359375 Z M 211 166 " clip-rule="nonzero"/></clipPath><clipPath id="fdd4ecc2e5"><path d="M 162 166 L 185 166 L 185 188.359375 L 162 188.359375 Z M 162 166 " clip-rule="nonzero"/></clipPath><clipPath id="dce3c2944a"><path d="M 135.601562 161 L 167 161 L 167 167 L 135.601562 167 Z M 135.601562 161 " clip-rule="nonzero"/></clipPath><clipPath id="432390d89a"><path d="M 153 126.109375 L 212 126.109375 L 212 180 L 153 180 Z M 153 126.109375 " clip-rule="nonzero"/></clipPath></defs><rect x="-37.5" width="450" fill="#ffffff" y="-37.499999" height="449.999989" fill-opacity="1"/><rect x="-37.5" width="450" fill="#ffffff" y="-37.499999" height="449.999989" fill-opacity="1"/><rect x="-37.5" width="450" fill="#be1c2d" y="-37.499999" height="449.999989" fill-opacity="1"/><path fill="#fafafa" d="M 164.445312 179.457031 L 155.570312 179.457031 C 154.34375 179.457031 153.351562 178.460938 153.351562 177.234375 C 153.351562 176.007812 154.34375 175.011719 155.570312 175.011719 L 164.445312 175.011719 C 165.667969 175.011719 166.664062 176.007812 166.664062 177.234375 C 166.664062 178.460938 165.667969 179.457031 164.445312 179.457031 Z M 164.445312 179.457031 " fill-opacity="1" fill-rule="nonzero"/><g clip-path="url(#756187bafc)"><path fill="#fafafa" d="M 236.554688 179.457031 L 231.007812 179.457031 C 229.78125 179.457031 228.789062 178.460938 228.789062 177.234375 C 228.789062 176.007812 229.78125 175.011719 231.007812 175.011719 L 234.710938 175.011719 L 237.703125 159.046875 C 237.664062 150.878906 230.695312 143.902344 222.132812 143.902344 L 207.5625 143.902344 L 200.503906 175.011719 L 213.257812 175.011719 C 214.480469 175.011719 215.476562 176.007812 215.476562 177.234375 C 215.476562 178.460938 214.480469 179.457031 213.257812 179.457031 L 197.726562 179.457031 C 197.050781 179.457031 196.410156 179.148438 195.992188 178.621094 C 195.570312 178.097656 195.410156 177.402344 195.558594 176.746094 L 203.628906 141.191406 C 203.859375 140.175781 204.753906 139.457031 205.792969 139.457031 L 222.132812 139.457031 C 233.140625 139.457031 242.101562 148.429688 242.101562 159.457031 L 238.734375 177.644531 C 238.539062 178.695312 237.625 179.457031 236.554688 179.457031 Z M 236.554688 179.457031 " fill-opacity="1" fill-rule="nonzero"/></g><g clip-path="url(#14dfceb0e6)"><path fill="#fafafa" d="M 222.132812 188.34375 C 216.015625 188.34375 211.039062 183.363281 211.039062 177.234375 C 211.039062 171.105469 216.015625 166.125 222.132812 166.125 C 228.246094 166.125 233.226562 171.105469 233.226562 177.234375 C 233.226562 183.363281 228.246094 188.34375 222.132812 188.34375 Z M 222.132812 170.566406 C 218.460938 170.566406 215.476562 173.558594 215.476562 177.234375 C 215.476562 180.910156 218.460938 183.898438 222.132812 183.898438 C 225.800781 183.898438 228.789062 180.910156 228.789062 177.234375 C 228.789062 173.558594 225.800781 170.566406 222.132812 170.566406 Z M 222.132812 170.566406 " fill-opacity="1" fill-rule="nonzero"/></g><g clip-path="url(#fdd4ecc2e5)"><path fill="#fafafa" d="M 173.320312 188.34375 C 167.203125 188.34375 162.226562 183.363281 162.226562 177.234375 C 162.226562 171.105469 167.203125 166.125 173.320312 166.125 C 179.433594 166.125 184.414062 171.105469 184.414062 177.234375 C 184.414062 183.363281 179.433594 188.34375 173.320312 188.34375 Z M 173.320312 170.566406 C 169.648438 170.566406 166.664062 173.558594 166.664062 177.234375 C 166.664062 180.910156 169.648438 183.898438 173.320312 183.898438 C 176.988281 183.898438 179.976562 180.910156 179.976562 177.234375 C 179.976562 173.558594 176.988281 170.566406 173.320312 170.566406 Z M 173.320312 170.566406 " fill-opacity="1" fill-rule="nonzero"/></g><path fill="#fafafa" d="M 164.445312 139.457031 L 146.695312 139.457031 C 145.46875 139.457031 144.476562 138.464844 144.476562 137.238281 C 144.476562 136.011719 145.46875 135.015625 146.695312 135.015625 L 164.445312 135.015625 C 165.667969 135.015625 166.664062 136.011719 166.664062 137.238281 C 166.664062 138.464844 165.667969 139.457031 164.445312 139.457031 Z M 164.445312 139.457031 " fill-opacity="1" fill-rule="nonzero"/><path fill="#fafafa" d="M 164.445312 152.792969 L 142.257812 152.792969 C 141.03125 152.792969 140.039062 151.796875 140.039062 150.570312 C 140.039062 149.34375 141.03125 148.347656 142.257812 148.347656 L 164.445312 148.347656 C 165.667969 148.347656 166.664062 149.34375 166.664062 150.570312 C 166.664062 151.796875 165.667969 152.792969 164.445312 152.792969 Z M 164.445312 152.792969 " fill-opacity="1" fill-rule="nonzero"/><g clip-path="url(#dce3c2944a)"><path fill="#fafafa" d="M 164.445312 166.125 L 137.820312 166.125 C 136.59375 166.125 135.601562 165.128906 135.601562 163.902344 C 135.601562 162.675781 136.59375 161.679688 137.820312 161.679688 L 164.445312 161.679688 C 165.667969 161.679688 166.664062 162.675781 166.664062 163.902344 C 166.664062 165.128906 165.667969 166.125 164.445312 166.125 Z M 164.445312 166.125 " fill-opacity="1" fill-rule="nonzero"/></g><g clip-path="url(#432390d89a)"><path fill="#fafafa" d="M 197.726562 179.457031 L 182.195312 179.457031 C 180.96875 179.457031 179.976562 178.460938 179.976562 177.234375 C 179.976562 176.007812 180.96875 175.011719 182.195312 175.011719 L 195.953125 175.011719 L 206.035156 130.570312 L 155.570312 130.570312 C 154.34375 130.570312 153.351562 129.574219 153.351562 128.347656 C 153.351562 127.121094 154.34375 126.125 155.570312 126.125 L 208.820312 126.125 C 209.492188 126.125 210.132812 126.433594 210.554688 126.960938 C 210.976562 127.488281 211.136719 128.179688 210.984375 128.835938 L 199.890625 177.722656 C 199.660156 178.742188 198.757812 179.457031 197.726562 179.457031 Z M 197.726562 179.457031 " fill-opacity="1" fill-rule="nonzero"/></g><g fill="#fafafa" fill-opacity="1"><g transform="translate(86.749533, 225.541231)"><g><path d="M 28.855469 -23.085938 L 28.855469 -13.195312 L 8.695312 -13.195312 L 8.695312 -23.085938 L 4.769531 -23.085938 L 4.769531 0 L 8.695312 0 L 8.695312 -9.886719 L 28.855469 -9.886719 L 28.855469 0 L 32.78125 0 L 32.78125 -23.085938 Z M 28.855469 -23.085938 "/></g></g></g><g fill="#fafafa" fill-opacity="1"><g transform="translate(124.2989, 225.541231)"><g><path d="M 25.46875 0 L 29.972656 0 L 17.351562 -22.96875 L 17.390625 -23.085938 L 12.773438 -23.085938 L 12.851562 -22.96875 L 0.191406 0 L 4.695312 0 L 6.964844 -4.117188 L 23.199219 -4.117188 Z M 9.082031 -7.964844 L 15.082031 -18.890625 L 21.085938 -7.964844 Z M 9.082031 -7.964844 "/></g></g></g><g fill="#fafafa" fill-opacity="1"><g transform="translate(154.461507, 225.541231)"><g><path d="M 32.089844 -16.351562 L 32.089844 -16.773438 C 32.089844 -20.929688 29.394531 -23.085938 24.894531 -23.085938 L 4.769531 -23.085938 L 4.769531 0 L 8.964844 0 L 8.964844 -8.925781 L 23.277344 -8.925781 C 27.164062 -8.925781 27.164062 -6.539062 27.164062 -4.734375 L 27.164062 -2.15625 C 27.164062 -1.460938 27.203125 -0.691406 27.316406 0 L 31.820312 0 C 31.703125 -0.691406 31.625 -1.460938 31.625 -2.308594 L 31.625 -5.039062 C 31.625 -7.425781 30.664062 -9.503906 28.433594 -10.734375 C 30.625 -11.425781 32.089844 -13.003906 32.089844 -16.351562 Z M 8.964844 -13.042969 L 8.964844 -19.238281 L 24.894531 -19.238281 C 27.507812 -19.238281 28.085938 -17.890625 28.085938 -16.773438 L 28.085938 -16.351562 C 28.085938 -14.542969 27.085938 -13.042969 24.894531 -13.042969 Z M 8.964844 -13.042969 "/></g></g></g><g fill="#fafafa" fill-opacity="1"><g transform="translate(189.433196, 225.541231)"><g><path d="M 21.160156 -23.085938 L 4.769531 -23.085938 L 4.769531 0 L 8.695312 0 L 8.695312 -7.503906 L 21.160156 -7.503906 C 27.203125 -7.503906 30.085938 -9.65625 30.085938 -15.121094 L 30.085938 -16.238281 C 30.085938 -20.046875 28.511719 -23.085938 21.160156 -23.085938 Z M 26.085938 -15.121094 C 26.085938 -12.390625 24.96875 -11.351562 20.585938 -11.351562 L 8.695312 -11.351562 L 8.695312 -19.238281 L 20.585938 -19.238281 C 24.777344 -19.238281 26.085938 -18.507812 26.085938 -16.238281 Z M 26.085938 -15.121094 "/></g></g></g><g fill="#fafafa" fill-opacity="1"><g transform="translate(221.827218, 225.541231)"><g><path d="M 29.085938 -19.582031 L 29.085938 -23.085938 L 4.769531 -23.085938 L 4.769531 0 L 29.085938 0 L 29.085938 -3.5 L 8.695312 -3.5 L 8.695312 -9.503906 L 26.703125 -9.503906 L 26.703125 -13.003906 L 8.695312 -13.003906 L 8.695312 -19.582031 Z M 29.085938 -19.582031 "/></g></g></g><g fill="#fafafa" fill-opacity="1"><g transform="translate(253.259421, 225.541231)"><g><path d="M 32.089844 -16.351562 L 32.089844 -16.773438 C 32.089844 -20.929688 29.394531 -23.085938 24.894531 -23.085938 L 4.769531 -23.085938 L 4.769531 0 L 8.964844 0 L 8.964844 -8.925781 L 23.277344 -8.925781 C 27.164062 -8.925781 27.164062 -6.539062 27.164062 -4.734375 L 27.164062 -2.15625 C 27.164062 -1.460938 27.203125 -0.691406 27.316406 0 L 31.820312 0 C 31.703125 -0.691406 31.625 -1.460938 31.625 -2.308594 L 31.625 -5.039062 C 31.625 -7.425781 30.664062 -9.503906 28.433594 -10.734375 C 30.625 -11.425781 32.089844 -13.003906 32.089844 -16.351562 Z M 8.964844 -13.042969 L 8.964844 -19.238281 L 24.894531 -19.238281 C 27.507812 -19.238281 28.085938 -17.890625 28.085938 -16.773438 L 28.085938 -16.351562 C 28.085938 -14.542969 27.085938 -13.042969 24.894531 -13.042969 Z M 8.964844 -13.042969 "/></g></g></g><g fill="#fafafa" fill-opacity="1"><g transform="translate(119.395235, 246.261855)"><g><path d="M 7.03125 -0.734375 L 7.03125 0 L 1.3125 0 L 1.3125 -8.078125 L 6.859375 -8.078125 L 6.859375 -7.34375 L 2.171875 -7.34375 L 2.171875 -4.46875 L 6.34375 -4.46875 L 6.34375 -3.734375 L 2.171875 -3.734375 L 2.171875 -0.734375 Z M 7.03125 -0.734375 "/></g></g></g><g fill="#fafafa" fill-opacity="1"><g transform="translate(128.656982, 246.261855)"><g><path d="M 6.390625 0 L 3.78125 -3.5625 L 1.171875 0 L 0.203125 0 L 3.265625 -4.15625 L 0.390625 -8.078125 L 1.375 -8.078125 L 3.8125 -4.78125 L 6.234375 -8.078125 L 7.15625 -8.078125 L 4.296875 -4.1875 L 7.375 0 Z M 6.390625 0 "/></g></g></g><g fill="#fafafa" fill-opacity="1"><g transform="translate(137.768823, 246.261855)"><g><path d="M 4.34375 -8.078125 C 5.375 -8.078125 6.179688 -7.832031 6.765625 -7.34375 C 7.347656 -6.851562 7.640625 -6.175781 7.640625 -5.3125 C 7.640625 -4.445312 7.347656 -3.769531 6.765625 -3.28125 C 6.179688 -2.789062 5.375 -2.546875 4.34375 -2.546875 L 2.171875 -2.546875 L 2.171875 0 L 1.3125 0 L 1.3125 -8.078125 Z M 4.3125 -3.296875 C 5.113281 -3.296875 5.726562 -3.472656 6.15625 -3.828125 C 6.582031 -4.179688 6.796875 -4.675781 6.796875 -5.3125 C 6.796875 -5.96875 6.582031 -6.46875 6.15625 -6.8125 C 5.726562 -7.164062 5.113281 -7.34375 4.3125 -7.34375 L 2.171875 -7.34375 L 2.171875 -3.296875 Z M 4.3125 -3.296875 "/></g></g></g><g fill="#fafafa" fill-opacity="1"><g transform="translate(147.595598, 246.261855)"><g><path d="M 6.828125 0 L 4.984375 -2.59375 C 4.773438 -2.570312 4.5625 -2.5625 4.34375 -2.5625 L 2.171875 -2.5625 L 2.171875 0 L 1.3125 0 L 1.3125 -8.078125 L 4.34375 -8.078125 C 5.375 -8.078125 6.179688 -7.832031 6.765625 -7.34375 C 7.347656 -6.851562 7.640625 -6.175781 7.640625 -5.3125 C 7.640625 -4.675781 7.476562 -4.140625 7.15625 -3.703125 C 6.84375 -3.273438 6.390625 -2.960938 5.796875 -2.765625 L 7.765625 0 Z M 4.3125 -3.296875 C 5.113281 -3.296875 5.726562 -3.472656 6.15625 -3.828125 C 6.582031 -4.179688 6.796875 -4.675781 6.796875 -5.3125 C 6.796875 -5.96875 6.582031 -6.46875 6.15625 -6.8125 C 5.726562 -7.164062 5.113281 -7.34375 4.3125 -7.34375 L 2.171875 -7.34375 L 2.171875 -3.296875 Z M 4.3125 -3.296875 "/></g></g></g><g fill="#fafafa" fill-opacity="1"><g transform="translate(157.480031, 246.261855)"><g><path d="M 7.03125 -0.734375 L 7.03125 0 L 1.3125 0 L 1.3125 -8.078125 L 6.859375 -8.078125 L 6.859375 -7.34375 L 2.171875 -7.34375 L 2.171875 -4.46875 L 6.34375 -4.46875 L 6.34375 -3.734375 L 2.171875 -3.734375 L 2.171875 -0.734375 Z M 7.03125 -0.734375 "/></g></g></g><g fill="#fafafa" fill-opacity="1"><g transform="translate(166.74178, 246.261855)"><g><path d="M 3.546875 0.0625 C 2.941406 0.0625 2.363281 -0.03125 1.8125 -0.21875 C 1.269531 -0.414062 0.847656 -0.671875 0.546875 -0.984375 L 0.875 -1.640625 C 1.164062 -1.347656 1.550781 -1.109375 2.03125 -0.921875 C 2.519531 -0.742188 3.023438 -0.65625 3.546875 -0.65625 C 4.265625 -0.65625 4.804688 -0.785156 5.171875 -1.046875 C 5.535156 -1.316406 5.71875 -1.664062 5.71875 -2.09375 C 5.71875 -2.414062 5.617188 -2.671875 5.421875 -2.859375 C 5.222656 -3.054688 4.976562 -3.207031 4.6875 -3.3125 C 4.40625 -3.414062 4.015625 -3.53125 3.515625 -3.65625 C 2.898438 -3.800781 2.410156 -3.945312 2.046875 -4.09375 C 1.691406 -4.238281 1.382812 -4.457031 1.125 -4.75 C 0.863281 -5.039062 0.734375 -5.4375 0.734375 -5.9375 C 0.734375 -6.34375 0.84375 -6.710938 1.0625 -7.046875 C 1.28125 -7.378906 1.609375 -7.644531 2.046875 -7.84375 C 2.492188 -8.050781 3.050781 -8.15625 3.71875 -8.15625 C 4.175781 -8.15625 4.625 -8.085938 5.0625 -7.953125 C 5.507812 -7.828125 5.894531 -7.65625 6.21875 -7.4375 L 5.9375 -6.75 C 5.59375 -6.976562 5.226562 -7.144531 4.84375 -7.25 C 4.457031 -7.363281 4.082031 -7.421875 3.71875 -7.421875 C 3.007812 -7.421875 2.472656 -7.285156 2.109375 -7.015625 C 1.753906 -6.742188 1.578125 -6.390625 1.578125 -5.953125 C 1.578125 -5.628906 1.675781 -5.367188 1.875 -5.171875 C 2.070312 -4.984375 2.316406 -4.835938 2.609375 -4.734375 C 2.910156 -4.628906 3.3125 -4.515625 3.8125 -4.390625 C 4.40625 -4.242188 4.882812 -4.097656 5.25 -3.953125 C 5.613281 -3.804688 5.921875 -3.585938 6.171875 -3.296875 C 6.429688 -3.015625 6.5625 -2.628906 6.5625 -2.140625 C 6.5625 -1.734375 6.453125 -1.359375 6.234375 -1.015625 C 6.015625 -0.679688 5.675781 -0.414062 5.21875 -0.21875 C 4.757812 -0.03125 4.203125 0.0625 3.546875 0.0625 Z M 3.546875 0.0625 "/></g></g></g><g fill="#fafafa" fill-opacity="1"><g transform="translate(175.380844, 246.261855)"><g><path d="M 3.546875 0.0625 C 2.941406 0.0625 2.363281 -0.03125 1.8125 -0.21875 C 1.269531 -0.414062 0.847656 -0.671875 0.546875 -0.984375 L 0.875 -1.640625 C 1.164062 -1.347656 1.550781 -1.109375 2.03125 -0.921875 C 2.519531 -0.742188 3.023438 -0.65625 3.546875 -0.65625 C 4.265625 -0.65625 4.804688 -0.785156 5.171875 -1.046875 C 5.535156 -1.316406 5.71875 -1.664062 5.71875 -2.09375 C 5.71875 -2.414062 5.617188 -2.671875 5.421875 -2.859375 C 5.222656 -3.054688 4.976562 -3.207031 4.6875 -3.3125 C 4.40625 -3.414062 4.015625 -3.53125 3.515625 -3.65625 C 2.898438 -3.800781 2.410156 -3.945312 2.046875 -4.09375 C 1.691406 -4.238281 1.382812 -4.457031 1.125 -4.75 C 0.863281 -5.039062 0.734375 -5.4375 0.734375 -5.9375 C 0.734375 -6.34375 0.84375 -6.710938 1.0625 -7.046875 C 1.28125 -7.378906 1.609375 -7.644531 2.046875 -7.84375 C 2.492188 -8.050781 3.050781 -8.15625 3.71875 -8.15625 C 4.175781 -8.15625 4.625 -8.085938 5.0625 -7.953125 C 5.507812 -7.828125 5.894531 -7.65625 6.21875 -7.4375 L 5.9375 -6.75 C 5.59375 -6.976562 5.226562 -7.144531 4.84375 -7.25 C 4.457031 -7.363281 4.082031 -7.421875 3.71875 -7.421875 C 3.007812 -7.421875 2.472656 -7.285156 2.109375 -7.015625 C 1.753906 -6.742188 1.578125 -6.390625 1.578125 -5.953125 C 1.578125 -5.628906 1.675781 -5.367188 1.875 -5.171875 C 2.070312 -4.984375 2.316406 -4.835938 2.609375 -4.734375 C 2.910156 -4.628906 3.3125 -4.515625 3.8125 -4.390625 C 4.40625 -4.242188 4.882812 -4.097656 5.25 -3.953125 C 5.613281 -3.804688 5.921875 -3.585938 6.171875 -3.296875 C 6.429688 -3.015625 6.5625 -2.628906 6.5625 -2.140625 C 6.5625 -1.734375 6.453125 -1.359375 6.234375 -1.015625 C 6.015625 -0.679688 5.675781 -0.414062 5.21875 -0.21875 C 4.757812 -0.03125 4.203125 0.0625 3.546875 0.0625 Z M 3.546875 0.0625 "/></g></g></g><g fill="#fafafa" fill-opacity="1"><g transform="translate(184.019908, 246.261855)"><g/></g></g><g fill="#fafafa" fill-opacity="1"><g transform="translate(188.58847, 246.261855)"><g><path d="M 1.3125 -8.078125 L 4.609375 -8.078125 C 5.460938 -8.078125 6.21875 -7.90625 6.875 -7.5625 C 7.53125 -7.226562 8.035156 -6.753906 8.390625 -6.140625 C 8.753906 -5.523438 8.9375 -4.828125 8.9375 -4.046875 C 8.9375 -3.253906 8.753906 -2.550781 8.390625 -1.9375 C 8.035156 -1.332031 7.53125 -0.859375 6.875 -0.515625 C 6.21875 -0.171875 5.460938 0 4.609375 0 L 1.3125 0 Z M 4.5625 -0.734375 C 5.269531 -0.734375 5.890625 -0.875 6.421875 -1.15625 C 6.953125 -1.4375 7.363281 -1.828125 7.65625 -2.328125 C 7.945312 -2.828125 8.09375 -3.398438 8.09375 -4.046875 C 8.09375 -4.691406 7.945312 -5.257812 7.65625 -5.75 C 7.363281 -6.25 6.953125 -6.640625 6.421875 -6.921875 C 5.890625 -7.203125 5.269531 -7.34375 4.5625 -7.34375 L 2.171875 -7.34375 L 2.171875 -0.734375 Z M 4.5625 -0.734375 "/></g></g></g><g fill="#fafafa" fill-opacity="1"><g transform="translate(199.660605, 246.261855)"><g><path d="M 7.03125 -0.734375 L 7.03125 0 L 1.3125 0 L 1.3125 -8.078125 L 6.859375 -8.078125 L 6.859375 -7.34375 L 2.171875 -7.34375 L 2.171875 -4.46875 L 6.34375 -4.46875 L 6.34375 -3.734375 L 2.171875 -3.734375 L 2.171875 -0.734375 Z M 7.03125 -0.734375 "/></g></g></g><g fill="#fafafa" fill-opacity="1"><g transform="translate(208.922353, 246.261855)"><g><path d="M 1.3125 -8.078125 L 2.171875 -8.078125 L 2.171875 -0.734375 L 6.703125 -0.734375 L 6.703125 0 L 1.3125 0 Z M 1.3125 -8.078125 "/></g></g></g><g fill="#fafafa" fill-opacity="1"><g transform="translate(217.2616, 246.261855)"><g><path d="M 1.3125 -8.078125 L 2.171875 -8.078125 L 2.171875 0 L 1.3125 0 Z M 1.3125 -8.078125 "/></g></g></g><g fill="#fafafa" fill-opacity="1"><g transform="translate(222.291404, 246.261855)"><g><path d="M 8.03125 -8.078125 L 4.453125 0 L 3.609375 0 L 0.03125 -8.078125 L 0.953125 -8.078125 L 4.046875 -1.0625 L 7.171875 -8.078125 Z M 8.03125 -8.078125 "/></g></g></g><g fill="#fafafa" fill-opacity="1"><g transform="translate(231.887548, 246.261855)"><g><path d="M 7.03125 -0.734375 L 7.03125 0 L 1.3125 0 L 1.3125 -8.078125 L 6.859375 -8.078125 L 6.859375 -7.34375 L 2.171875 -7.34375 L 2.171875 -4.46875 L 6.34375 -4.46875 L 6.34375 -3.734375 L 2.171875 -3.734375 L 2.171875 -0.734375 Z M 7.03125 -0.734375 "/></g></g></g><g fill="#fafafa" fill-opacity="1"><g transform="translate(241.149297, 246.261855)"><g><path d="M 6.828125 0 L 4.984375 -2.59375 C 4.773438 -2.570312 4.5625 -2.5625 4.34375 -2.5625 L 2.171875 -2.5625 L 2.171875 0 L 1.3125 0 L 1.3125 -8.078125 L 4.34375 -8.078125 C 5.375 -8.078125 6.179688 -7.832031 6.765625 -7.34375 C 7.347656 -6.851562 7.640625 -6.175781 7.640625 -5.3125 C 7.640625 -4.675781 7.476562 -4.140625 7.15625 -3.703125 C 6.84375 -3.273438 6.390625 -2.960938 5.796875 -2.765625 L 7.765625 0 Z M 4.3125 -3.296875 C 5.113281 -3.296875 5.726562 -3.472656 6.15625 -3.828125 C 6.582031 -4.179688 6.796875 -4.675781 6.796875 -5.3125 C 6.796875 -5.96875 6.582031 -6.46875 6.15625 -6.8125 C 5.726562 -7.164062 5.113281 -7.34375 4.3125 -7.34375 L 2.171875 -7.34375 L 2.171875 -3.296875 Z M 4.3125 -3.296875 "/></g></g></g><g fill="#fafafa" fill-opacity="1"><g transform="translate(251.03373, 246.261855)"><g><path d="M 4.09375 -2.796875 L 4.09375 0 L 3.25 0 L 3.25 -2.796875 L 0.015625 -8.078125 L 0.921875 -8.078125 L 3.6875 -3.546875 L 6.46875 -8.078125 L 7.328125 -8.078125 Z M 4.09375 -2.796875 "/></g></g></g></svg>